<?xml version="1.0" encoding="utf-8" standalone="no"?>
<!DOCTYPE svg PUBLIC "-//W3C//DTD SVG 1.1//EN" "http://www.w3.org/Graphics/SVG/1.1/DTD/svg11.dtd">
<svg xmlns="http://www.w3.org/2000/svg" xmlns:xl="http://www.w3.org/1999/xlink" version="1.1" viewBox="131 151 511 329" width="511pt" height="329pt" xmlns:dc="http://purl.org/dc/elements/1.1/"><metadata> Produced by OmniGraffle 6.2.5 <dc:date>2015-08-17 15:22:45 +0000</dc:date></metadata><defs/><g stroke="none" stroke-opacity="1" stroke-dasharray="none" fill="none" fill-opacity="1"><title>Canvas 3</title><g><title>Layer 2</title><path d="M 171 162 C 171 162 135 261 144 297 C 153 333 207 369 207 369 L 225 171 Z" fill="#279321"/><path d="M 171 162 C 171 162 135 261 144 297 C 153 333 207 369 207 369 L 225 171 Z" stroke="black" stroke-linecap="round" stroke-linejoin="round" stroke-width="1"/><path d="M 225 171 C 225 171 207 360 216 369 C 225 378 297 396 297 396 L 324 189 Z" fill="#f76a10"/><path d="M 225 171 C 225 171 207 360 216 369 C 225 378 297 396 297 396 L 324 189 Z" stroke="black" stroke-linecap="round" stroke-linejoin="round" stroke-width="1"/><path d="M 324 189 C 324 189 306 378 297 396 C 288 414 315 423 315 423 C 315 423 324 414 351 450 C 378 486 378 459 378 459 C 378 459 387 432 396 423 C 405 414 414 414 414 414 L 387 198 Z" fill="#1b62a6"/><path d="M 324 189 C 324 189 306 378 297 396 C 288 414 315 423 315 423 C 315 423 324 414 351 450 C 378 486 378 459 378 459 C 378 459 387 432 396 423 C 405 414 414 414 414 414 L 387 198 Z" stroke="black" stroke-linecap="round" stroke-linejoin="round" stroke-width="1"/><path d="M 387 198 L 414 414 C 414 414 441 423 450 423 C 459 423 468 405 468 405 L 468 279 L 459 234 L 486 216 L 432 198 Z" fill="#824fb0"/><path d="M 387 198 L 414 414 C 414 414 441 423 450 423 C 459 423 468 405 468 405 L 468 279 L 459 234 L 486 216 L 432 198 Z" stroke="black" stroke-linecap="round" stroke-linejoin="round" stroke-width="1"/><path d="M 469.40234 344.96094 L 468 412.56201 C 468 412.56201 495 394.56201 513 412.56201 C 531 430.56201 549 475.56201 558 466.56201 C 567 457.56201 522 403.56201 549 376.56201 C 576 349.56201 575.35938 342 575.35938 342 Z" fill="#29b3c4"/><path d="M 469.40234 344.96094 L 468 412.56201 C 468 412.56201 495 394.56201 513 412.56201 C 531 430.56201 549 475.56201 558 466.56201 C 567 457.56201 522 403.56201 549 376.56201 C 576 349.56201 575.35938 342 575.35938 342 Z" stroke="black" stroke-linecap="round" stroke-linejoin="round" stroke-width="1"/><path d="M 477 244.87451 L 468 280.87451 L 469.89453 340.96094 L 576.5039 342 C 576.5039 342 630 244.87451 630 226.87451 C 630 208.87451 630 172.87451 612 190.87451 C 594 208.87451 558 244.87451 540 253.87451 C 522 262.87451 522 262.87451 522 262.87451 Z" fill="#db5db6"/><path d="M 477 244.87451 L 468 280.87451 L 469.89453 340.96094 L 576.5039 342 C 576.5039 342 630 244.87451 630 226.87451 C 630 208.87451 630 172.87451 612 190.87451 C 594 208.87451 558 244.87451 540 253.87451 C 522 262.87451 522 262.87451 522 262.87451 Z" stroke="black" stroke-linecap="round" stroke-linejoin="round" stroke-width="1"/></g><g><title>Layer 3</title><circle cx="166.5" cy="274.5" r="4.5000072" fill="black"/><circle cx="166.5" cy="274.5" r="4.5000072" stroke="black" stroke-linecap="round" stroke-linejoin="round" stroke-width="1"/><circle cx="265.5" cy="283.5" r="4.5000072" fill="black"/><circle cx="265.5" cy="283.5" r="4.5000072" stroke="black" stroke-linecap="round" stroke-linejoin="round" stroke-width="1"/><circle cx="355.5" cy="328.5" r="4.5000072" fill="black"/><circle cx="355.5" cy="328.5" r="4.5000072" stroke="black" stroke-linecap="round" stroke-linejoin="round" stroke-width="1"/><circle cx="526.5" cy="382.5" r="4.5000072" fill="black"/><circle cx="526.5" cy="382.5" r="4.5000072" stroke="black" stroke-linecap="round" stroke-linejoin="round" stroke-width="1"/><circle cx="589.5" cy="265.5" r="4.5000072" fill="black"/><circle cx="589.5" cy="265.5" r="4.5000072" stroke="black" stroke-linecap="round" stroke-linejoin="round" stroke-width="1"/><circle cx="436.5" cy="301.5" r="4.5000072" fill="black"/><circle cx="436.5" cy="301.5" r="4.5000072" stroke="black" stroke-linecap="round" stroke-linejoin="round" stroke-width="1"/></g></g></svg>
